<?xml version="1.0" encoding="UTF-8" standalone="no"?>
<svg
   xmlns:dc="http://purl.org/dc/elements/1.1/"
   xmlns:cc="http://creativecommons.org/ns#"
   xmlns:rdf="http://www.w3.org/1999/02/22-rdf-syntax-ns#"
   xmlns:svg="http://www.w3.org/2000/svg"
   xmlns="http://www.w3.org/2000/svg"
   xmlns:sodipodi="http://sodipodi.sourceforge.net/DTD/sodipodi-0.dtd"
   xmlns:inkscape="http://www.inkscape.org/namespaces/inkscape"
   viewBox="0 0 36 36"
   version="1.1"
   id="svg12"
   sodipodi:docname="1f427 copy.svg"
   inkscape:version="0.92.2 5c3e80d, 2017-08-06">
  <metadata
     id="metadata18">
    <rdf:RDF>
      <cc:Work
         rdf:about="">
        <dc:format>image/svg+xml</dc:format>
        <dc:type
           rdf:resource="http://purl.org/dc/dcmitype/StillImage" />
      </cc:Work>
    </rdf:RDF>
  </metadata>
  <defs
     id="defs16" />
  <sodipodi:namedview
     pagecolor="#ffffff"
     bordercolor="#666666"
     borderopacity="1"
     objecttolerance="10"
     gridtolerance="10"
     guidetolerance="10"
     inkscape:pageopacity="0"
     inkscape:pageshadow="2"
     inkscape:window-width="1639"
     inkscape:window-height="1005"
     id="namedview14"
     showgrid="false"
     inkscape:zoom="6.5555556"
     inkscape:cx="18"
     inkscape:cy="18"
     inkscape:window-x="41"
     inkscape:window-y="1"
     inkscape:window-maximized="1"
     inkscape:current-layer="svg12" />
  <path
     fill="#FFAC33"
     d="M28.068 31.355c-2.229 0-8.468.785-10.068 1.832-1.601-1.047-7.84-1.832-10.069-1.832-2.564 0-1.161 1.039-1.161 2.322C6.77 34.96 5.367 36 7.931 36c2.229 0 8.468-.785 10.069-1.832C19.601 35.215 25.84 36 28.068 36c2.565 0 1.161-1.04 1.161-2.322 0-1.283 1.405-2.323-1.161-2.323z"
     id="path2" />
  <path
     fill="#292F33"
     d="M31.73 15.866c-1.25-2.499-3.152-4.995-4.942-6.723C24.337 3.711 20.759 0 18 0s-6.337 3.71-8.788 9.143c-1.791 1.729-3.693 4.224-4.943 6.724-2.438 4.876-3.116 11.426-2.078 11.944.873.437 2.324-1.552 4.208-5.082C6.667 33.604 13.446 33.678 18 33.678c4.553 0 11.333-.073 11.601-10.947 1.884 3.528 3.335 5.517 4.207 5.08 1.038-.519.361-7.069-2.078-11.945z"
     id="path4" />
  <path
     fill="#F5F8FA"
     d="M21.675 6.943c-.85.607-2.172 1.186-3.675 1.186s-2.825-.578-3.675-1.185c-3.302 2.137-5.615 7.06-5.615 12.798 0 7.695 4.159 13.936 9.29 13.936 5.132 0 9.291-6.24 9.291-13.936 0-5.738-2.313-10.662-5.616-12.799z"
     id="path6" />
  <path
     fill="#FFAC33"
     d="M28.452 6h-5.808C18.797 6 18 5.22 18 4.257c0-.962-.364-1.742 3.483-1.742C27.291 2.516 29.613 6 28.452 6z"
     id="path8" />
  <path
     fill="#F5F8FA"
     d="M16.839 3.483c0 .642-.52 1.162-1.161 1.162-.642 0-1.161-.521-1.161-1.162 0-.641.52-1.161 1.161-1.161s1.161.52 1.161 1.161z"
     id="path10" />
  <path
     id="path1362"
     d="M 2.671144,8.589509 2.1,7.499941 2.6447835,7.214545 C 3.485859,6.773446 4.3958233,6.238152 4.5473082,5.463505 4.6650518,4.86108 4.3325581,4.091705 3.5589655,3.17682 L 3.1618007,2.707252 4.1009372,1.912923 4.498102,2.382491 C 5.5388143,3.61335 5.950038,4.698348 5.7542674,5.699344 5.4773064,7.118241 4.005688,7.889374 3.2155761,8.303761 Z M 9.100293,12.5 8.8148968,11.955216 C 8.3737978,11.113789 7.8385041,10.204177 7.0638567,10.052692 6.461783,9.934597 5.6920566,10.267442 4.7771717,11.041035 L 4.3076035,11.438199 3.5132739,10.499063 3.9828422,10.101898 C 5.21335,9.060834 6.2972935,8.648908 7.2996956,8.845733 c 1.4188975,0.27696 2.1900298,1.748228 2.6044168,2.538691 l 0.2853966,0.544783 z m 2.998418,-1.413625 -0.397164,-0.469569 C 10.660483,9.385947 10.249611,8.300949 10.445381,7.299602 10.722342,5.881056 12.193609,5.109923 12.984072,4.695536 L 13.528856,4.41014 14.1,5.499707 13.555216,5.785103 c -0.841426,0.441099 -1.751039,0.976393 -1.902524,1.750689 -0.117744,0.602776 0.21475,1.3718 0.987991,2.286685 l 0.397165,0.469568 z M 9.3895555,4.201716 c -0.1655439,0 -0.328276,-0.01582 -0.4892507,-0.0471 C 7.4814073,3.877658 6.7102746,2.406039 6.2958876,1.615928 L 6.0104914,1.071144 7.1000584,0.5 7.3858065,1.044784 C 7.8269055,1.885859 8.3621992,2.795823 9.1364948,2.947308 9.7378655,3.0647 10.507943,2.73291 11.42318,1.958965 l 0.469568,-0.397164 0.79433,0.939136 -0.469569,0.397165 C 11.183827,3.771865 10.253477,4.201716 9.3895555,4.201716 Z"
     inkscape:connector-curvature="0"
     style="fill:#be1931;stroke-width:0.35147327" />
</svg>
